# xmcd
#
# Track frame offsets:
#	150
#	10354
#	21889
#	36236
#	46020
#	56644
#	69475
#	81149
#	94729
#	107464
#	120529
#	130561
#	145042
#	157379
#	169980
#	182206
#	192924
#	202500
#	214431
#	229895
#
# Disc length: 3242 seconds
#
# Revision: 1
# Processed by: cddbd v1.5.1PL0 Copyright (c) Steve Scherf et al.
# Submitted via: dBpowerAMP V4.0
#
DISCID=130ca814
DTITLE=Gene Pitney - I'm Gonna Be Strong 
DYEAR=2001
DGENRE=Pop
TTITLE0=I'm Gonna Be Strong
TTITLE1=Baby I Need Your Lovin'
TTITLE2=Bus Stop
TTITLE3=A Groovy Kind Of Love
TTITLE4=Nobody Needs Your Love
TTITLE5=Stop In The Name Of Love
TTITLE6=Mission Bell
TTITLE7=(Your Love Keeps Lifting Me) Higher And Higher
TTITLE8=Only Love Can Break A Heart
TTITLE9=She Thinks I Still Care
TTITLE10=Hello Mary Lou
TTITLE11=Lookin' Thru' The Eyes Of Love
TTITLE12=I Can't Stop Loving You
TTITLE13=If I Only Had Time
TTITLE14=Just One Smile
TTITLE15=Born To Lose
TTITLE16=Pretty Flamingo
TTITLE17=I Really Don't Want To Know
TTITLE18=Unchained Melody
TTITLE19=Twenty-Four Hours From Tulsa
EXTD=Issued by Sanctuary Records Group Ltd. These Sound recordings issued under license from Nestshare Ltd\nCastle Select Records is a lebel of Sanctuary Records Group Ltd.\nCopyright 2001
EXTT0=
EXTT1=
EXTT2=
EXTT3=
EXTT4=
EXTT5=
EXTT6=
EXTT7=
EXTT8=
EXTT9=
EXTT10=
EXTT11=
EXTT12=
EXTT13=
EXTT14=
EXTT15=
EXTT16=
EXTT17=
EXTT18=
EXTT19=
PLAYORDER=
